HIERARCHY
ROOT Pelvis
{
	OFFSET 0.000000 0.941512 0.000000
	CHANNELS 6 Xposition Yposition Zposition Zrotation Yrotation Xrotation 
	JOINT Pelvis_L_Hip
	{
		OFFSET 0.000000 0.000000 0.000000
		CHANNELS 3 Zrotation Yrotation Xrotation
		JOINT L_Hip
		{
			OFFSET 0.062321 -0.080322 -0.016990
			CHANNELS 3 Zrotation Yrotation Xrotation
			JOINT L_Knee
			{
				OFFSET 0.093051 -0.381305 -0.029784
				CHANNELS 3 Zrotation Yrotation Xrotation
				JOINT L_Ankle
				{
					OFFSET -0.010371 -0.431000 -0.033614
					CHANNELS 3 Zrotation Yrotation Xrotation
					End Site #name: L_Foot
					{
						OFFSET 0.069299 -0.038670 0.119418
					}
				}
			}
		}
	}
	JOINT Pelvis_R_Hip
	{
		OFFSET 0.000000 0.000000 0.000000
		CHANNELS 3 Zrotation Yrotation Xrotation
		JOINT R_Hip
		{
			OFFSET -0.055334 -0.094904 -0.002373
			CHANNELS 3 Zrotation Yrotation Xrotation
			JOINT R_Knee
			{
				OFFSET -0.064207 -0.384370 -0.019592
				CHANNELS 3 Zrotation Yrotation Xrotation
				JOINT R_Ankle
				{
					OFFSET 0.025418 -0.419734 -0.065953
					CHANNELS 3 Zrotation Yrotation Xrotation
					End Site #name: R_Foot
					{
						OFFSET -0.057233 -0.039888 0.132134
					}
				}
			}
		}
	}
	JOINT Pelvis_Spine1
	{
		OFFSET 0.000000 0.000000 0.000000
		CHANNELS 3 Zrotation Yrotation Xrotation
		JOINT Spine1
		{
			OFFSET -0.005562 0.124093 -0.043360
			CHANNELS 3 Zrotation Yrotation Xrotation
			JOINT Spine2
			{
				OFFSET 0.012244 0.139499 0.029894
				CHANNELS 3 Zrotation Yrotation Xrotation
				JOINT Spine3
				{
					OFFSET -0.002556 0.056561 0.009225
					CHANNELS 3 Zrotation Yrotation Xrotation
					JOINT Spine3_Neck
					{
						OFFSET 0.000000 0.000000 0.000000
						CHANNELS 3 Zrotation Yrotation Xrotation
						JOINT Neck
						{
							OFFSET -0.005205 0.217920 -0.024551
							CHANNELS 3 Zrotation Yrotation Xrotation
							End Site #name: Head
							{
								OFFSET 0.002365 0.091850 0.046637
							}
						}
					}
					JOINT Spine3_L_Collar
					{
						OFFSET 0.000000 0.000000 0.000000
						CHANNELS 3 Zrotation Yrotation Xrotation
						JOINT L_Collar
						{
							OFFSET 0.072225 0.116603 -0.009480
							CHANNELS 3 Zrotation Yrotation Xrotation
							JOINT L_Shoulder
							{
								OFFSET 0.115937 -0.058643 -0.021018
								CHANNELS 3 Zrotation Yrotation Xrotation
								JOINT L_Elbow
								{
									OFFSET 0.021994 -0.254722 -0.024492
									CHANNELS 3 Zrotation Yrotation Xrotation
									End Site #name: L_Wrist
									{
										OFFSET 0.048810 -0.240214 0.103329
									}
								}
							}
						}
					}
					JOINT Spine3_R_Collar
					{
						OFFSET 0.000000 0.000000 0.000000
						CHANNELS 3 Zrotation Yrotation Xrotation
						JOINT R_Collar
						{
							OFFSET -0.073372 0.120704 -0.024611
							CHANNELS 3 Zrotation Yrotation Xrotation
							JOINT R_Shoulder
							{
								OFFSET -0.108089 -0.054969 -0.020504
								CHANNELS 3 Zrotation Yrotation Xrotation
								JOINT R_Elbow
								{
									OFFSET -0.033684 -0.260739 0.009889
									CHANNELS 3 Zrotation Yrotation Xrotation
									End Site #name: R_Wrist
									{
										OFFSET -0.067980 -0.232763 0.118463
									}
								}
							}
						}
					}
				}
			}
		}
	}
}
MOTION
Frames: 13
Frame Time: 0.041667
0.106271 0.928388 1.005999 -2.779540 8.763651 4.080004 0.000000 0.000000 0.000000 -5.839382 2.820842 8.014736 1.285386 -0.270767 4.771088 -0.333272 -14.178283 -5.693890 0.000000 0.000000 0.000000 -4.276914 4.571804 -40.101022 4.690670 -0.719573 7.341969 6.486781 -9.771130 27.324264 0.000000 0.000000 0.000000 7.321670 -1.481648 -0.933908 -2.244056 0.027644 -4.941683 0.444122 3.704338 13.085453 0.000000 0.000000 0.000000 -3.237841 1.287458 12.077196 0.000000 0.000000 0.000000 16.615563 -1.967565 3.077450 -17.071038 -1.998474 -16.335993 -2.629081 -1.700150 -2.427372 0.000000 0.000000 0.000000 -22.894603 0.092697 3.254631 16.922383 -0.308172 2.154971 7.498004 9.674222 -14.329872 
0.108717 0.920195 1.053039 -2.039880 9.568526 4.739189 0.000000 0.000000 0.000000 -5.595483 3.256534 9.741776 1.405144 -0.349558 6.253390 -0.522235 -16.046862 -6.075068 0.000000 0.000000 0.000000 -3.668425 4.555195 -38.787689 3.475405 -0.484250 4.770263 7.295487 -9.619373 29.391177 0.000000 0.000000 0.000000 6.818593 -1.140604 -2.354980 -2.446867 0.057023 -4.858496 0.279935 3.665431 13.015522 0.000000 0.000000 0.000000 -2.791875 0.959459 11.994696 0.000000 0.000000 0.000000 16.399524 -1.708538 3.269670 -17.347726 -1.753002 -15.193717 -2.643959 -1.535839 -1.694829 0.000000 0.000000 0.000000 -22.577469 -0.594624 3.635430 16.866878 -0.523144 2.919824 7.385009 8.634331 -12.082265 
0.108879 0.912929 1.104745 -2.000009 9.919375 5.295228 0.000000 0.000000 0.000000 -4.359344 3.432295 11.275199 1.422848 -0.468869 8.715204 -1.132582 -17.864259 -5.847945 0.000000 0.000000 0.000000 -1.977311 4.978408 -38.242652 3.995791 -0.560686 8.549941 5.848492 -8.877944 24.825246 0.000000 0.000000 0.000000 7.036377 -0.928514 -3.966340 -2.409460 0.077888 -4.513152 -0.133337 3.812619 12.896162 0.000000 0.000000 0.000000 -2.637309 0.851284 11.641383 0.000000 0.000000 0.000000 15.781614 -1.106734 3.567048 -17.056888 -1.438737 -13.785606 -2.224985 -1.173307 -0.935498 0.000000 0.000000 0.000000 -22.030790 -0.935407 3.738465 16.584235 -0.851447 4.099957 6.892646 7.515007 -10.177470 
0.107232 0.911230 1.158355 -2.817315 9.474364 5.077227 0.000000 0.000000 0.000000 -2.725772 3.301807 12.040829 1.740335 -0.793372 13.774763 -2.601301 -18.916791 -4.189517 0.000000 0.000000 0.000000 0.719087 5.883279 -38.707365 3.921035 -0.503683 16.539009 3.470498 -8.517098 17.880325 0.000000 0.000000 0.000000 8.295605 -1.049471 -4.717712 -2.266560 0.091209 -4.097189 -0.648524 4.110222 13.008889 0.000000 0.000000 0.000000 -2.871381 1.043710 11.013219 0.000000 0.000000 0.000000 14.524270 -0.072931 3.911539 -16.380133 -1.238576 -12.868716 -0.973952 -0.254316 0.780208 0.000000 0.000000 0.000000 -21.582810 -0.584393 3.412623 16.012386 -0.953818 4.489519 6.280815 6.227422 -7.930435 
0.105706 0.916625 1.210121 -3.999577 8.475391 4.367968 0.000000 0.000000 0.000000 -0.809336 2.563951 10.503935 0.603410 -1.028983 22.624918 -6.069900 -17.942321 0.955348 0.000000 0.000000 0.000000 2.847034 6.334156 -36.898373 4.838351 -0.821936 21.109245 2.058821 -7.461337 12.521722 0.000000 0.000000 0.000000 9.720186 -1.349736 -4.559705 -1.876661 0.081358 -3.522571 -0.814494 4.356741 12.872252 0.000000 0.000000 0.000000 -3.467399 1.446431 11.239226 0.000000 0.000000 0.000000 13.827240 0.469876 4.021831 -16.609861 -1.064713 -12.083911 0.677801 0.888169 3.096671 0.000000 0.000000 0.000000 -22.061027 0.233417 2.946888 15.784538 -0.856761 4.186651 5.400513 5.204220 -6.663841 
0.102731 0.922315 1.255834 -4.746362 7.706546 5.416732 0.000000 0.000000 0.000000 1.764673 0.583819 3.493471 -3.573550 -0.144199 35.272208 -10.425554 -13.418322 8.949281 0.000000 0.000000 0.000000 4.687563 6.537649 -34.756837 4.989001 -0.844475 21.006346 0.907681 -7.310276 9.085175 0.000000 0.000000 0.000000 9.477563 -0.920735 -6.787039 0.088105 -0.132666 -2.482683 -1.215679 4.481891 14.488782 0.000000 0.000000 0.000000 -3.530915 1.702847 6.716437 0.000000 0.000000 0.000000 14.224188 0.850157 4.351329 -18.002156 -1.249045 -13.105576 2.978826 1.905466 3.744499 0.000000 0.000000 0.000000 -21.372413 -1.638369 4.319867 13.451721 -0.249397 1.825525 4.734882 6.339369 -10.830130 
0.100518 0.929461 1.296195 -4.714985 7.022751 5.278181 0.000000 0.000000 0.000000 3.178306 -1.211222 -4.356166 -7.460904 1.574678 47.879080 -10.198087 -5.202515 12.940993 0.000000 0.000000 0.000000 6.316860 6.202614 -30.741190 3.716941 -0.356495 19.706736 0.515628 -6.212316 6.798160 0.000000 0.000000 0.000000 9.025137 -1.029527 -5.720504 0.591109 -0.218279 -2.780371 -1.063953 4.644034 14.589124 0.000000 0.000000 0.000000 -3.506474 1.699319 6.769208 0.000000 0.000000 0.000000 15.028956 0.795074 4.512111 -18.170530 -1.110844 -12.653284 2.397528 1.433067 2.316851 0.000000 0.000000 0.000000 -22.688269 -1.281042 4.339454 14.104812 -0.170615 1.555798 4.136981 7.478100 -14.856285 
0.100322 0.936427 1.332012 -4.203828 6.271590 4.945303 0.000000 0.000000 0.000000 3.911509 -2.860741 -12.158809 -10.812581 3.903800 56.466482 -4.627057 2.415434 9.079349 0.000000 0.000000 0.000000 7.025025 5.510365 -26.538754 2.584958 0.037351 17.885047 0.601830 -4.538459 5.355591 0.000000 0.000000 0.000000 8.458573 -1.181453 -4.219394 0.812470 -0.278488 -3.489360 -0.969983 4.991683 14.953459 0.000000 0.000000 0.000000 -3.694471 1.817933 6.963685 0.000000 0.000000 0.000000 15.076701 0.872486 4.553692 -17.225543 -1.108929 -12.730355 1.551600 0.767504 0.549161 0.000000 0.000000 0.000000 -23.682149 -0.630927 4.051905 14.236069 -0.050461 1.089976 4.020060 8.910565 -18.697608 
0.101337 0.942473 1.365397 -3.465012 5.085969 4.762203 0.000000 0.000000 0.000000 4.220761 -4.221048 -18.710201 -12.549595 5.445324 58.210032 0.165233 7.915772 4.631834 0.000000 0.000000 0.000000 7.172886 4.681618 -22.419229 1.651898 0.316264 15.593512 0.928632 -2.397463 4.222730 0.000000 0.000000 0.000000 7.877156 -1.256245 -3.102437 0.761038 -0.295133 -4.115183 -0.792142 5.518421 15.380073 0.000000 0.000000 0.000000 -4.265614 2.175352 7.219239 0.000000 0.000000 0.000000 15.052128 1.507234 4.934574 -16.640236 -1.229587 -13.360515 1.298854 0.302790 -1.354582 0.000000 0.000000 0.000000 -24.419431 0.415776 3.422043 13.988208 0.110050 0.429821 4.077992 10.231161 -21.810838 
0.102775 0.947077 1.397450 -2.725414 3.396443 4.734267 0.000000 0.000000 0.000000 4.252333 -5.190693 -23.458856 -12.390836 5.371214 53.597130 2.972919 11.790127 2.210975 0.000000 0.000000 0.000000 7.048822 3.872231 -18.702527 0.852014 0.514821 13.469004 1.386925 0.207579 3.156780 0.000000 0.000000 0.000000 7.419921 -1.284155 -2.386362 0.471717 -0.271361 -4.535878 -0.572766 6.079682 15.662770 0.000000 0.000000 0.000000 -5.076945 2.697158 7.294941 0.000000 0.000000 0.000000 14.983691 2.672603 5.618593 -16.327190 -1.368258 -14.083839 1.299386 -0.060726 -3.264583 0.000000 0.000000 0.000000 -24.957353 1.604795 2.688149 13.677213 0.374871 -0.668016 4.368499 11.267945 -23.695486 
0.105152 0.950116 1.428528 -2.197915 1.878636 4.759109 0.000000 0.000000 0.000000 4.056006 -5.887146 -26.855101 -10.277662 3.833853 45.434899 4.119586 13.381506 1.153722 0.000000 0.000000 0.000000 6.779621 3.076649 -15.224156 0.321881 0.589444 11.462562 1.712134 2.639669 2.077049 0.000000 0.000000 0.000000 7.249748 -1.320602 -1.959561 0.118192 -0.230764 -4.707357 -0.364407 6.415316 15.713351 0.000000 0.000000 0.000000 -5.757946 3.142051 7.132269 0.000000 0.000000 0.000000 14.885514 3.497079 6.050401 -16.213695 -1.410081 -14.349692 1.310257 -0.350986 -4.805603 0.000000 0.000000 0.000000 -25.432083 2.667219 2.044835 13.649376 0.661086 -1.828400 4.572311 11.822118 -24.564001 
0.108316 0.951724 1.458877 -2.081714 0.845426 4.809980 0.000000 0.000000 0.000000 4.123998 -6.424411 -29.694890 -7.338224 2.087325 36.461058 3.799716 12.587317 1.169599 0.000000 0.000000 0.000000 6.625947 2.269400 -11.694140 0.118254 0.526321 9.200202 1.839091 4.614428 1.012993 0.000000 0.000000 0.000000 7.386435 -1.368997 -1.853625 -0.083728 -0.195743 -4.549518 -0.123944 6.497664 15.651862 0.000000 0.000000 0.000000 -6.165505 3.410553 6.808161 0.000000 0.000000 0.000000 14.798366 3.758244 6.122611 -16.450527 -1.406525 -14.366016 1.212779 -0.552493 -5.592952 0.000000 0.000000 0.000000 -25.751119 3.415561 1.603119 13.673388 0.901500 -2.791989 4.674052 11.973853 -24.705580 
0.112075 0.952063 1.490015 -2.121674 0.098364 4.814572 0.000000 0.000000 0.000000 4.371482 -6.767181 -31.795911 -4.813127 0.911453 27.306779 1.862804 10.196074 3.181487 0.000000 0.000000 0.000000 6.454786 1.363986 -7.729249 0.055529 0.377421 6.378644 1.846310 6.378693 -0.073737 0.000000 0.000000 0.000000 7.489037 -1.354793 -2.089470 -0.181125 -0.157518 -4.020460 0.173137 6.395538 15.527474 0.000000 0.000000 0.000000 -6.321750 3.520535 6.483167 0.000000 0.000000 0.000000 14.765042 3.806786 6.075588 -17.007401 -1.401911 -14.346999 1.151840 -0.599349 -5.677442 0.000000 0.000000 0.000000 -25.718150 3.755884 1.437641 13.569415 1.066694 -3.474789 4.898605 11.906094 -24.118966 
